# xmcd
#
# Track frame offsets: 
#        150
#        8530
#        29597
#        51727
#        87810
#        105897
#        147237
#        159440
#
# Disc length: 2290 seconds
#
# Revision: 22
# Processed by: cddbd v1.5.2PL0 Copyright (c) Steve Scherf et al.
# Submitted via: ExactAudioCopy v0.95b3
#
DISCID=5b08f008
DTITLE=Stevie Ray Vaughan - Couldn't Stand The Weather
DYEAR=1984
DGENRE=Blues
TTITLE0=Scuttle Buttin'
TTITLE1=Couldn't Stand The Weather
TTITLE2=The Things (That) I Used To Do
TTITLE3=Voodoo Chile (Slight Return)
TTITLE4=Cold Shot
TTITLE5=Tin Pan Alley
TTITLE6=Honey Bee
TTITLE7=Stang's Swang
EXTD=
EXTT0=
EXTT1=
EXTT2=
EXTT3=
EXTT4=
EXTT5=
EXTT6=
EXTT7=
PLAYORDER=
